<?xml version="1.0" encoding="UTF-8"?>
<svg width="67px" height="72px" viewBox="0 0 67 72" version="1.1" xmlns="http://www.w3.org/2000/svg" xmlns:xlink="http://www.w3.org/1999/xlink">
    <!-- Generator: Sketch 46.2 (44496) - http://www.bohemiancoding.com/sketch -->
    <title>ZenithBank</title>
    <desc>Created with Sketch.</desc>
    <defs />
    <g id="Page-1" stroke="none" stroke-width="1" fill="none" fill-rule="evenodd">
        <g id="ZenithBank" transform="translate(-14.000000, -10.000000)">
            <g transform="translate(15.000000, 10.000000)">
                <path d="M4.73006558,19.8590344 C6.1113954,15.3775062 7.91363114,8.82457943 10.1367728,0.200253945 L65.813981,0.200253945 L4.73006558,50.3048761 L32.2384292,16.6482409 C24.1735683,16.6354644 16.3291711,16.6290761 8.70523764,16.6290761 C6.09425581,17.0737458 4.18243284,21.2455185 4.73006558,19.8590344 Z"
                    id="Path-11" fill="#868786" />
                <path d="M62.3734732,6.0108478 L0.0425386775,57.0018433 L57.9471355,56.6703374 C60.3213483,46.3590506 61.8989492,39.0783926 62.6799382,34.8283634 C62.6799382,32.9551511 61.3689869,39.4053355 57.9471355,39.9355624 C51.0741589,40.142573 43.2934664,40.2460783 34.605058,40.2460783 L62.3734732,6.0108478 Z"
                    id="Path-14" fill="#E3200F" />
                <path d="M3.58042572,69.5585793 L9.07805879,69.5750115 L8.69297868,71.7933579 L-0.335920948,71.7933579 L-0.0491591631,70.1501384 L6.82493048,62.0737143 L1.31091102,62.0572821 L1.70418432,59.8307196 L10.7085044,59.8307196 L10.4299358,61.4328586 L3.58042572,69.5585793 Z M18.0987652,66.7240256 L13.7154065,66.7240256 L13.2156217,69.5750115 L18.4019134,69.5750115 L18.0168333,71.7933579 L10.0284693,71.7933579 L12.0931541,59.8307196 L20.0979045,59.8307196 L19.7128244,62.0572821 L14.5183395,62.0572821 L14.075907,64.5796241 L18.467459,64.5796241 L18.0987652,66.7240256 Z M28.8973947,71.7933579 L26.1854476,71.7933579 L23.3342161,64.2427641 L22.0233051,71.7933579 L19.2212328,71.7933579 L21.2859176,59.8307196 L24.0224444,59.8307196 L26.8654827,67.3813134 L28.1682005,59.8307196 L30.9702728,59.8307196 L28.8973947,71.7933579 Z M33.7231859,71.7933579 L30.9211136,71.7933579 L32.9939917,59.8307196 L35.7878708,59.8307196 L33.7231859,71.7933579 Z M46.2669657,62.0572821 L42.7930515,62.0572821 L41.1134468,71.7933579 L38.3031813,71.7933579 L39.9909792,62.0572821 L36.5744174,62.0572821 L36.9676907,59.8307196 L46.6520458,59.8307196 L46.2669657,62.0572821 Z M55.5088884,71.7933579 L52.7232025,71.7933579 L53.5834878,66.7979705 L49.4950841,66.7979705 L48.6266055,71.7933579 L45.8245332,71.7933579 L47.8892181,59.8307196 L50.6994836,59.8307196 L49.871971,64.5796241 L53.9685679,64.5796241 L54.7878873,59.8307196 L57.5817664,59.8307196 L55.5088884,71.7933579 Z"
                    id="ZENITH" fill="#868786" />
            </g>
        </g>
    </g>
</svg>